<svg width="165" height="34" viewBox="0 0 165 34" fill="none" xmlns="http://www.w3.org/2000/svg">
<path d="M0.336882 14.1013C0.401048 13.7485 0.443007 13.4665 0.46276 13.2552C0.482103 13.0204 0.39579 12.7758 0.203819 12.5213C0.29101 12.1447 0.356199 11.8506 0.399385 11.6389C0.466006 11.4267 0.472609 11.1336 0.419197 10.7595C0.619467 10.1465 0.926826 9.62544 1.34127 9.19626C1.77916 8.76668 2.25342 8.40679 2.76405 8.11658C3.27428 7.80294 3.80897 7.54748 4.36811 7.35019C4.92684 7.12947 5.45104 6.94451 5.9407 6.79531C5.93906 6.70158 5.89138 6.65553 5.79764 6.65716C5.7039 6.6588 5.67945 6.60063 5.72427 6.48264C6.98561 6.22621 8.24511 5.86433 9.50277 5.397C10.7839 4.92925 12.0892 4.50797 13.4188 4.13315C14.7484 3.75832 16.1156 3.52349 17.5204 3.42864C18.9248 3.31037 20.4042 3.46035 21.9586 3.8786C22.0573 4.15817 22.1909 4.42541 22.3594 4.68032C22.5279 4.93523 22.6965 5.19014 22.865 5.44505C23.0566 5.67612 23.2247 5.90759 23.3694 6.13948C23.5141 6.37136 23.6004 6.61599 23.6283 6.87335C23.9141 7.12622 24.1416 7.40354 24.3109 7.70532C24.5033 7.98325 24.5452 8.3693 24.4366 8.86346C24.1821 9.05543 23.9159 9.2476 23.638 9.43998C23.3601 9.63236 23.0702 9.81323 22.7684 9.98258C21.7094 9.74322 20.6532 9.66789 19.5999 9.7566C18.5466 9.84531 17.599 9.94389 16.757 10.0524C16.4943 9.77564 16.1874 9.65208 15.8363 9.68164C15.4848 9.68778 15.1109 9.75291 14.7146 9.87703C14.3413 9.97731 13.9682 10.0893 13.5953 10.213C13.222 10.3133 12.8709 10.3429 12.542 10.3017C12.2883 10.5406 11.9513 10.7105 11.5312 10.8116C11.1106 10.8893 10.6664 10.9557 10.1985 11.0107C10.1771 11.1283 10.202 11.2099 10.2731 11.2555C10.3442 11.3012 10.3576 11.3947 10.3132 11.5361C10.4809 11.7442 10.7062 11.8926 10.989 11.9814C11.2714 12.0468 11.5539 12.1122 11.8363 12.1776C12.1422 12.2426 12.4135 12.3433 12.6503 12.4799C12.8867 12.5929 13.0425 12.7895 13.1177 13.0695C13.5399 13.0855 13.9052 13.1964 14.2135 13.4019C14.5214 13.5841 14.7833 13.8139 14.9991 14.0915C15.2149 14.369 15.3726 14.671 15.472 14.9974C15.5711 15.3004 15.6111 15.581 15.5922 15.8392C15.69 16.0719 15.7854 16.164 15.8783 16.1155C15.9947 16.0666 16.1246 16.1229 16.268 16.2845C16.3679 16.6344 16.5854 17.0056 16.9204 17.3983C17.2784 17.7671 17.5551 18.1725 17.7503 18.6144C17.8095 19.3166 17.8557 19.9487 17.8889 20.5108C17.9456 21.0723 17.8615 21.6247 17.6365 22.1678C17.2562 23.2058 16.6982 24.1415 15.9626 24.9747C15.2271 25.808 14.3844 26.5494 13.4346 27.1989C12.5079 27.8245 11.5214 28.3809 10.475 28.868C9.42829 29.3316 8.39203 29.7248 7.36625 30.0474C7.27211 30.0256 7.15494 30.0277 7.01474 30.0535C6.89798 30.079 6.87332 30.0091 6.94076 29.8439C6.73313 30.035 6.48911 30.1565 6.20873 30.2083C5.95177 30.2596 5.65905 30.2765 5.33057 30.2588C5.02593 30.2641 4.70936 30.2579 4.38088 30.2402C4.07583 30.2221 3.77139 30.2391 3.46757 30.2913C3.27683 30.1071 3.0978 29.9227 2.93049 29.7381C2.78661 29.553 2.66556 29.3325 2.56732 29.0763C2.44974 29.0549 2.38993 28.9857 2.38789 28.8685C2.40887 28.7275 2.36077 28.658 2.2436 28.66C2.24197 28.5663 2.25246 28.4958 2.27507 28.4485C2.29769 28.4012 2.3203 28.354 2.34292 28.3067C2.43543 28.2348 2.46976 28.1873 2.44592 28.1642C2.4451 28.1174 2.40933 28.0828 2.33862 28.0606C2.29094 28.0146 2.23153 27.9687 2.16042 27.9231C2.11273 27.8771 2.09999 27.8187 2.1222 27.748C2.23568 27.535 2.26654 27.2883 2.21476 27.008C2.18601 26.7037 2.15726 26.3995 2.12851 26.0953C2.09976 25.791 2.11828 25.5094 2.18409 25.2504C2.24948 24.968 2.44458 24.7302 2.76938 24.537C3.73181 24.6139 4.6332 24.5513 5.47355 24.3491C6.33733 24.1465 7.1413 23.8746 7.88546 23.5335C8.65305 23.1919 9.37337 22.8277 10.0464 22.4409C10.7425 22.0302 11.4157 21.6552 12.0661 21.3156C12.1324 21.0801 12.2343 20.879 12.3721 20.7125C12.5332 20.5456 12.6946 20.3905 12.8562 20.247C13.0174 20.0801 13.1668 19.9134 13.3046 19.7469C13.4419 19.557 13.5435 19.3325 13.6093 19.0735C13.6311 18.9794 13.6298 18.9091 13.6056 18.8626C13.5813 18.8161 13.5456 18.7816 13.4983 18.759C13.4506 18.7129 13.4029 18.6669 13.3552 18.6208C13.3076 18.5748 13.2829 18.5049 13.2813 18.4112C13.2105 18.389 13.1398 18.3667 13.0691 18.3445C13.0218 18.3219 12.9748 18.311 12.9279 18.3118C12.3133 18.0178 11.6644 17.7713 10.9811 17.5723C10.2978 17.3732 9.71962 17.1489 9.24645 16.8993C8.96851 17.0917 8.68812 17.1435 8.40528 17.0546C8.12244 16.9658 7.78101 16.878 7.38099 16.7912C6.39595 16.7615 5.45696 16.6842 4.56401 16.5591C3.69451 16.4336 2.84659 16.2023 2.02027 15.8651C1.97094 15.7253 1.91031 15.6092 1.83838 15.5167C1.76603 15.4007 1.60138 15.3684 1.34442 15.4198C1.17629 15.1883 0.996858 14.9805 0.806115 14.7963C0.638396 14.5883 0.481985 14.3566 0.336882 14.1013ZM40.5016 18.7096C40.483 18.9912 40.5112 19.2603 40.586 19.5168C40.6608 19.7734 40.7473 20.0297 40.8455 20.2859C40.9668 20.5181 41.0765 20.7624 41.1748 21.0185C41.273 21.2746 41.3478 21.5312 41.3992 21.7881C41.4518 22.1154 41.4581 22.4786 41.4182 22.8778C41.3779 23.2536 41.3024 23.63 41.1918 24.0069C41.0807 24.3605 40.9341 24.6912 40.752 24.9991C40.5694 25.2836 40.3505 25.4984 40.0952 25.6435C39.7744 26.0711 39.3818 26.4061 38.9172 26.6486C38.4526 26.8911 38.024 27.1799 37.6314 27.5149C37.3764 27.6835 37.0856 27.8057 36.7587 27.8818C36.4553 27.9574 36.1402 28.0332 35.8133 28.1092C35.558 28.2543 35.256 28.412 34.9074 28.5822C34.5583 28.7289 34.1975 28.8758 33.8251 29.023C33.4522 29.1467 33.0789 29.247 32.7051 29.3238C32.331 29.3772 32.0031 29.3947 31.7215 29.3762C31.023 29.6462 30.3346 29.8223 29.6562 29.9045C29.0017 30.0097 28.2276 29.9763 27.3338 29.8044C26.4922 29.9363 25.7066 29.9148 24.9769 29.74C24.2706 29.5648 23.6327 29.2829 23.0634 28.8944C22.517 28.482 22.028 27.9982 21.5964 27.4432C21.1878 26.8643 20.8491 26.2607 20.5803 25.6325C20.3695 24.3001 20.3953 23.0924 20.6577 22.0095C20.9197 20.9032 21.3005 19.8886 21.8 18.9657C22.3227 18.0189 22.917 17.153 23.5831 16.3678C24.2488 15.5592 24.8914 14.7744 25.5111 14.0135C25.6525 14.0579 25.7579 14.056 25.8274 14.0079C25.9199 13.936 26.0005 13.8525 26.0692 13.7576C26.1374 13.6392 26.2059 13.5325 26.2746 13.4375C26.3667 13.3422 26.4711 13.2817 26.5879 13.2563C26.7458 12.9019 26.9756 12.64 27.2774 12.4707C27.6022 12.2775 27.8554 12.0152 28.0372 11.6839C28.2473 11.6333 28.4218 11.5599 28.5608 11.4638C28.6997 11.3676 28.8268 11.2599 28.9419 11.1406C29.0805 11.021 29.2192 10.9131 29.3582 10.8169C29.4968 10.6973 29.6594 10.6124 29.846 10.5623L29.8393 10.1756C30.2578 9.98078 30.5588 9.76456 30.7421 9.52695C30.9486 9.26549 31.1893 8.95656 31.4644 8.60014C31.6749 8.57302 31.8387 8.55844 31.9559 8.5564C32.0965 8.55394 32.2952 8.52703 32.5522 8.47567C32.7339 8.14432 32.8937 7.8954 33.0314 7.72891C33.1926 7.56201 33.4239 7.38216 33.7252 7.18937C34.0089 7.32507 34.3152 7.41349 34.6441 7.45463C34.9964 7.49536 35.3037 7.64236 35.566 7.89564C35.5935 8.12957 35.6671 8.31581 35.7867 8.45437C35.9059 8.56949 36.0368 8.68441 36.1795 8.79913C36.3217 8.89041 36.4525 8.99361 36.5717 9.10874C36.7143 9.22345 36.8109 9.38586 36.8615 9.59594C36.9556 9.61774 37.014 9.605 37.0366 9.55772C37.0827 9.51004 37.1528 9.49709 37.2469 9.51889C37.3229 9.84574 37.4088 10.0669 37.5046 10.1825C37.6 10.2746 37.6972 10.4721 37.7963 10.7751C37.6832 11.0115 37.5937 11.2592 37.5279 11.5182C37.4852 11.7534 37.3476 11.9316 37.1153 12.0528C37.0948 12.2173 37.1433 12.3102 37.2608 12.3316C37.378 12.3295 37.4493 12.3869 37.4748 12.5036C37.5019 12.7141 37.4694 12.8671 37.3773 12.9625C37.9557 13.8666 38.4765 14.8303 38.9398 15.8536C39.4026 16.8535 39.9232 17.8055 40.5016 18.7096ZM36.166 22.1256C36.2552 21.8662 36.3687 21.6533 36.5064 21.4868C36.6676 21.3199 36.7571 21.0722 36.7748 20.7437C36.6543 20.5583 36.5816 20.4189 36.5565 20.3256C36.531 20.2088 36.5162 20.0332 36.5121 19.7989C35.9839 19.0815 35.5252 18.3159 35.1359 17.5023C34.7462 16.6652 34.3107 15.8875 33.8294 15.1692C33.7841 15.2638 33.7038 15.359 33.5882 15.4547C33.4727 15.5505 33.3434 15.5293 33.2003 15.3912C33.1567 15.5795 33.0772 15.7215 32.9616 15.8173C32.8457 15.8896 32.7174 15.927 32.5768 15.9295C32.4358 15.9085 32.2829 15.876 32.118 15.832C31.9762 15.7642 31.8459 15.6844 31.7271 15.5927C31.0569 16.1436 30.3865 16.6827 29.7159 17.2101C29.0453 17.7375 28.4465 18.3457 27.9194 19.0347C27.8265 19.0832 27.7683 19.1077 27.7448 19.1081C27.721 19.085 27.6509 19.098 27.5346 19.1469C27.3549 19.5954 27.1277 20.0096 26.853 20.3894C26.6014 20.7455 26.3499 21.1132 26.0987 21.4926C25.8475 21.8721 25.6318 22.2743 25.4517 22.6994C25.2716 23.1245 25.1747 23.6184 25.1611 24.1813C25.5652 24.5024 26.0374 24.6934 26.5776 24.7543C27.1178 24.8152 27.6687 24.8173 28.2303 24.7606C28.8153 24.7035 29.3765 24.6234 29.9138 24.5202C30.4742 24.3933 30.9887 24.3257 31.4574 24.3175C32.4376 24.066 33.2759 23.7466 33.9723 23.3594C34.6684 22.9488 35.3996 22.5375 36.166 22.1256ZM52.1029 28.6688C51.4504 28.8911 50.7394 29.1145 49.9698 29.3389C49.2001 29.5633 48.4286 29.6823 47.6553 29.6958C46.4836 29.7162 45.5529 29.4395 44.8631 28.8655C44.7414 28.6098 44.6329 28.4358 44.5375 28.3437C44.4656 28.2512 44.3936 28.1587 44.3217 28.0662C44.2728 27.9499 44.235 27.7982 44.2082 27.6111C43.9213 27.2879 43.6921 26.9169 43.5207 26.4979C43.3489 26.0555 43.224 25.6123 43.1459 25.1683C43.0909 24.7005 43.071 24.232 43.0862 23.7629C43.1249 23.2934 43.1992 22.8467 43.309 22.4229C43.3542 22.3283 43.376 22.2342 43.3744 22.1404C43.3962 22.0463 43.4178 21.9404 43.4391 21.8229C43.5263 21.4463 43.6137 21.0814 43.7013 20.7283C43.8124 20.3747 43.9594 20.0674 44.1423 19.8064C44.0449 19.5971 44.0408 19.3628 44.1301 19.1033C44.2193 18.8439 44.3207 18.6078 44.4342 18.3948C44.7467 17.4986 45.0031 16.744 45.2034 16.131C45.4267 15.4942 45.6502 14.8691 45.8739 14.2558C46.2538 13.1943 46.6106 12.1449 46.9441 11.1077C47.2776 10.0705 47.5745 8.95184 47.8349 7.75181C48.0203 7.63136 48.1595 7.54689 48.2524 7.49839C48.3922 7.44906 48.5087 7.41187 48.602 7.3868C49.0275 7.59034 49.5233 7.79266 50.0894 7.99374C50.6551 8.1714 51.1254 8.25695 51.5004 8.25041C51.6899 8.36431 51.8087 8.456 51.8568 8.52548C51.9045 8.57153 51.9522 8.61758 51.9999 8.66363C52.2629 8.96377 52.4911 9.27624 52.6843 9.60105C52.8771 9.90242 52.9428 10.3115 52.8815 10.8283C52.7446 11.0416 52.641 11.1489 52.5707 11.1501C52.4617 11.6209 52.3398 12.0215 52.2049 12.352C52.0934 12.6821 51.9703 13.0125 51.8354 13.343C51.6775 13.6974 51.5313 14.0515 51.3968 14.4055C51.2624 14.7595 51.1528 15.195 51.068 15.7122C50.9763 15.831 50.9079 15.9377 50.8627 16.0323C50.8409 16.1264 50.8075 16.2325 50.7627 16.3505C50.7179 16.4684 50.6616 16.5984 50.5937 16.7402C50.5489 16.8582 50.4687 16.9651 50.3532 17.0608C50.2935 17.6713 50.1849 18.1655 50.0274 18.5433C49.8934 18.9207 49.7476 19.2983 49.5901 19.6761C49.3208 20.3606 49.0749 21.0447 48.8524 21.7284C48.6533 22.4116 48.538 23.1872 48.5062 24.0551C48.6226 24.0062 48.7276 23.9809 48.8213 23.9792C48.9385 23.9772 49.044 23.9754 49.1377 23.9737C49.3486 23.97 49.5953 24.0009 49.8777 24.0663C50.5742 23.6791 51.3319 23.4432 52.1509 23.3585C52.9933 23.2735 53.8243 23.2121 54.6441 23.1744C54.9722 23.1687 55.3003 23.1629 55.6284 23.1572C55.9564 23.1515 56.2607 23.1227 56.541 23.0709C56.754 23.1844 56.8841 23.2525 56.9314 23.2751C57.0017 23.2739 57.0954 23.2722 57.2126 23.2702C57.3766 23.2673 57.5174 23.2766 57.635 23.298C57.9207 23.5508 58.1935 23.7336 58.4533 23.8463C58.7131 23.959 58.9845 24.0597 59.2673 24.1485C59.5267 24.2378 59.7746 24.3389 60.011 24.452C60.2704 24.5412 60.5189 24.6775 60.7565 24.8609L61.029 26.3681C61.1967 26.5762 61.2694 26.7155 61.2472 26.7863C61.2505 26.9737 61.2061 27.1151 61.114 27.2105L61.191 27.5959C60.8408 27.6724 60.5961 27.7587 60.4572 27.8549C60.3416 27.9507 60.2263 28.0582 60.1112 28.1774C59.9241 28.2041 59.7837 28.2183 59.69 28.2199C59.6197 28.2211 59.5494 28.2224 59.4791 28.2236C59.151 28.2293 58.7536 28.2948 58.287 28.4202C57.6506 28.2203 56.9926 28.1263 56.313 28.1382C56.0553 28.1427 55.786 28.1591 55.5052 28.1875C55.2244 28.2158 54.9436 28.2441 54.6628 28.2725C54.3824 28.3243 54.0901 28.3645 53.7859 28.3933C53.5051 28.4216 53.2123 28.4385 52.9077 28.4438L52.1029 28.6688ZM82.3311 17.9794C82.3126 18.2611 82.3407 18.5301 82.4155 18.7867C82.4903 19.0432 82.5769 19.2996 82.6751 19.5557C82.7963 19.788 82.9061 20.0322 83.0043 20.2884C83.1026 20.5445 83.1774 20.801 83.2287 21.058C83.2813 21.3853 83.2877 21.7485 83.2478 22.1477C83.2074 22.5234 83.132 22.8998 83.0213 23.2768C82.9103 23.6304 82.7637 23.9611 82.5815 24.269C82.399 24.5535 82.18 24.7683 81.9247 24.9134C81.604 25.3409 81.2114 25.6759 80.7468 25.9185C80.2822 26.161 79.8536 26.4498 79.4609 26.7848C79.206 26.9533 78.9151 27.0756 78.5883 27.1516C78.2849 27.2273 77.9697 27.3031 77.6429 27.3791C77.3876 27.5242 77.0856 27.6818 76.7369 27.852C76.3879 27.9988 76.0271 28.1457 75.6546 28.2929C75.2817 28.4166 74.9084 28.5168 74.5347 28.5937C74.1606 28.6471 73.8327 28.6645 73.5511 28.646C72.8526 28.9161 72.1641 29.0922 71.4858 29.1743C70.8313 29.2795 70.0571 29.2462 69.1634 29.0742C68.3218 29.2061 67.5361 29.1847 66.8064 29.0099C66.1001 28.8347 65.4623 28.5528 64.8929 28.1642C64.3466 27.7518 63.8576 27.2681 63.426 26.7131C63.0174 26.1342 62.6787 25.5306 62.4098 24.9024C62.1991 23.5699 62.2249 22.3623 62.4872 21.2794C62.7492 20.1731 63.13 19.1585 63.6296 18.2356C64.1522 17.2888 64.7466 16.4228 65.4127 15.6376C66.0783 14.829 66.721 14.0442 67.3406 13.2833C67.482 13.3277 67.5875 13.3259 67.657 13.2778C67.7495 13.2059 67.8301 13.1224 67.8987 13.0274C67.967 12.909 68.0355 12.8024 68.1041 12.7074C68.1962 12.612 68.3007 12.5516 68.4174 12.5261C68.5753 12.1718 68.8052 11.9099 69.1069 11.7405C69.4317 11.5473 69.685 11.2851 69.8668 10.9537C70.0768 10.9032 70.2514 10.8298 70.3903 10.7336C70.5293 10.6374 70.6564 10.5297 70.7715 10.4105C70.91 10.2909 71.0488 10.183 71.1878 10.0868C71.3263 9.96716 71.4889 9.88228 71.6756 9.83214L71.6688 9.44548C72.0874 9.25064 72.3883 9.03442 72.5717 8.79681C72.7781 8.53536 73.0189 8.22642 73.2939 7.87C73.5044 7.84289 73.6683 7.82831 73.7854 7.82626C73.926 7.82381 74.1248 7.7969 74.3818 7.74553C74.5635 7.41418 74.7233 7.16526 74.861 6.99877C75.0222 6.83187 75.2534 6.65202 75.5548 6.45924C75.8385 6.59493 76.1447 6.68335 76.4736 6.72449C76.826 6.76522 77.1333 6.91223 77.3955 7.1655C77.4231 7.39943 77.4966 7.58567 77.6163 7.72423C77.7355 7.83936 77.8664 7.95428 78.0091 8.06899C78.1513 8.16027 78.282 8.26348 78.4012 8.3786C78.5439 8.49332 78.6405 8.65572 78.691 8.8658C78.7852 8.8876 78.8436 8.87486 78.8662 8.82759C78.9122 8.7799 78.9823 8.76696 79.0765 8.78875C79.1525 9.1156 79.2384 9.33679 79.3342 9.45233C79.4296 9.54443 79.5268 9.74198 79.6258 10.045C79.5127 10.2814 79.4233 10.5291 79.3575 10.7881C79.3147 11.0232 79.1772 11.2014 78.9449 11.3227C78.9243 11.4871 78.9728 11.5801 79.0904 11.6014C79.2076 11.5994 79.2789 11.6568 79.3044 11.7735C79.3315 11.984 79.299 12.1369 79.2069 12.2323C79.7853 13.1364 80.3061 14.1001 80.7693 15.1235C81.2322 16.1233 81.7528 17.0753 82.3311 17.9794ZM77.9955 21.3955C78.0848 21.1361 78.1983 20.9231 78.336 20.7566C78.4972 20.5897 78.5866 20.342 78.6043 20.0135C78.4839 19.8281 78.4111 19.6887 78.3861 19.5954C78.3606 19.4787 78.3458 19.3031 78.3417 19.0688C77.8135 18.3513 77.3547 17.5858 76.9655 16.7721C76.5758 15.935 76.1403 15.1574 75.6589 14.4391C75.6137 14.5337 75.5333 14.6288 75.4178 14.7246C75.3023 14.8204 75.173 14.7992 75.0299 14.6611C74.9863 14.8493 74.9067 14.9914 74.7912 15.0872C74.6753 15.1595 74.547 15.1969 74.4064 15.1994C74.2654 15.1784 74.1124 15.1459 73.9476 15.1019C73.8058 15.034 73.6754 14.9543 73.5566 14.8626C72.8865 15.4134 72.2161 15.9525 71.5455 16.48C70.8749 17.0074 70.2761 17.6156 69.7489 18.3046C69.656 18.3531 69.5978 18.3775 69.5744 18.3779C69.5506 18.3549 69.4805 18.3678 69.3641 18.4168C69.1844 18.8653 68.9572 19.2795 68.6826 19.6593C68.4309 20.0153 68.1795 20.383 67.9283 20.7625C67.677 21.1419 67.4614 21.5442 67.2813 21.9693C67.1012 22.3944 67.0043 22.8883 66.9907 23.4511C67.3948 23.7723 67.8669 23.9633 68.4071 24.0242C68.9474 24.085 69.4983 24.0872 70.0599 24.0305C70.6449 23.9734 71.2061 23.8933 71.7434 23.7901C72.3038 23.6631 72.8183 23.5955 73.287 23.5874C74.2671 23.3358 75.1054 23.0165 75.8019 22.6293C76.498 22.2186 77.2292 21.8074 77.9955 21.3955ZM108.973 27.43C108.74 27.5512 108.52 27.6606 108.31 27.758C108.125 27.855 107.903 27.9058 107.645 27.9103C106.719 27.2466 106.218 26.0716 106.142 24.3852C106.089 22.6983 106.415 20.5478 107.119 17.9335C107.235 17.8612 107.291 17.7196 107.288 17.5087L106.965 17.1627C106.871 17.1643 106.778 17.1777 106.685 17.2027C106.615 17.2274 106.558 17.3104 106.513 17.4519C105.912 17.9077 105.252 18.3881 104.534 18.8929C103.816 19.3742 103.062 19.8328 102.273 20.2685C101.506 20.6804 100.715 21.0223 99.8995 21.2944C99.1072 21.5661 98.3244 21.7087 97.5511 21.7222C95.5826 21.7566 94.0889 20.7864 93.0699 18.8117L92.7795 18.2893L92.5063 18.7512C92.4376 18.8462 92.3357 19.0472 92.2004 19.3543C92.0647 19.6379 91.9298 19.9685 91.7957 20.3459C91.6617 20.7233 91.5395 21.1122 91.4293 21.5126C91.3421 21.8892 91.3127 22.2179 91.341 22.4987C91.1338 22.7133 90.9155 22.9632 90.6861 23.2485C90.4566 23.5338 90.2864 23.8532 90.1754 24.2068C90.1318 24.3951 90.1583 24.5704 90.2549 24.7328C90.2117 24.9445 90.1091 25.1104 89.9471 25.2304C89.8554 25.3493 89.752 25.4683 89.6369 25.5875C89.5448 25.6828 89.4646 25.7897 89.3963 25.9081C89.3515 26.0261 89.3184 26.1439 89.297 26.2615C89.2991 26.3786 89.2894 26.496 89.268 26.6136C89.2709 26.7776 89.2501 26.9304 89.2057 27.0718C88.8216 27.8989 88.5145 28.4317 88.2842 28.6701C88.0544 28.932 87.7403 29.0664 87.3419 29.0734C87.1544 29.0766 86.8492 29.0468 86.4261 28.9839C86.1158 28.6611 85.8268 28.2208 85.5592 27.6629C85.3146 27.0811 85.1163 26.4634 84.9643 25.8097C84.8356 25.1556 84.7656 24.5005 84.7542 23.8443C84.7657 23.1643 84.8727 22.5764 85.075 22.0806C85.0746 22.0572 85.1642 21.8212 85.3439 21.3727C85.5236 20.9242 85.7479 20.346 86.0169 19.638C86.3092 18.9297 86.6355 18.1504 86.9958 17.3003C87.3556 16.4267 87.716 15.5882 88.077 14.7849C88.4376 13.9582 88.7761 13.2022 89.0923 12.5169C89.4319 11.8311 89.7159 11.3105 89.9441 10.9549C90.1266 10.6704 90.2862 10.4098 90.4227 10.173C90.5822 9.91234 90.7302 9.66363 90.8667 9.42683C91.2759 8.69302 91.6638 8.0885 92.0306 7.61328C92.4204 7.11421 92.9878 6.71753 93.7327 6.42323C94.252 6.62514 94.6312 6.86465 94.8704 7.14177L94.9475 7.5272C95.0453 7.7599 95.188 7.87462 95.3754 7.87135C95.6344 7.93715 95.8466 8.00377 96.0118 8.07121C96.2001 8.1148 96.4001 8.15819 96.6119 8.20138C96.7792 8.38599 96.9354 8.60595 97.0805 8.86127C97.2729 9.13921 97.4535 9.41734 97.6225 9.69569C97.8144 9.95019 97.9597 10.2172 98.0584 10.4968C98.1801 10.7525 98.2433 11.021 98.2483 11.3022C98.2766 11.583 98.2348 11.8767 98.123 12.1834L98.1643 12.5343C98.2851 12.7432 98.3137 13.0357 98.2499 13.4119C98.2293 13.5763 98.2207 13.7523 98.224 13.9397C98.2268 14.1038 98.2535 14.2908 98.3041 14.5009C98.7316 14.8216 99.1094 14.9791 99.4375 14.9734C99.8125 14.9669 100.151 14.8789 100.453 14.7096C100.777 14.5164 101.079 14.3236 101.357 14.1312C101.542 13.9873 101.727 13.8669 101.913 13.7699C102.098 13.6494 102.285 13.5759 102.472 13.5491C102.887 13.1434 103.255 12.7854 103.578 12.475C103.924 12.1642 104.282 11.8532 104.652 11.542C105.345 10.9674 106.014 10.3462 106.659 9.67861C107.303 9.011 107.816 8.18161 108.198 7.19043C108.429 7.04574 108.674 6.97114 108.932 6.96664C109.19 6.96214 109.46 7.01603 109.744 7.12829C110.027 7.24055 110.298 7.35301 110.558 7.46568C110.629 7.51132 110.688 7.54545 110.736 7.56807C110.806 7.59027 110.865 7.61269 110.913 7.6353C110.917 7.86964 111.014 8.06719 111.204 8.22796C111.299 8.29662 111.359 8.34247 111.383 8.36549C111.406 8.38852 111.442 8.41134 111.489 8.43396C111.844 8.61529 112.07 8.79888 112.167 8.98471C112.34 9.52083 112.64 9.92581 113.067 10.1997C113.024 10.4348 113.028 10.6574 113.079 10.8675C113.152 11.0538 113.238 11.2515 113.335 11.4608C113.36 11.5307 113.385 11.6006 113.409 11.6705C113.434 11.7404 113.471 11.8218 113.519 11.9147L112.85 11.856L112.967 12.5221C113.02 12.8493 112.991 13.2132 112.881 13.6136C112.794 14.0136 112.682 14.332 112.546 14.5688C112.58 15.1777 112.6 15.6579 112.606 16.0094C112.635 16.337 112.629 16.6536 112.587 16.9591C112.545 17.2411 112.48 17.5118 112.391 17.7712C112.325 18.0302 112.224 18.3133 112.089 18.6204C112.209 20.1185 112.057 21.4924 111.634 22.7422C111.233 23.9681 110.808 25.1242 110.358 26.2103C110.313 26.3283 110.257 26.4465 110.188 26.5649C110.143 26.6829 110.099 26.8009 110.054 26.9189C109.844 26.9928 109.658 27.0781 109.496 27.1747C109.333 27.2479 109.159 27.333 108.973 27.43ZM134.284 17.0726C134.266 17.3542 134.294 17.6233 134.369 17.8798C134.443 18.1364 134.53 18.3927 134.628 18.6489C134.749 18.8812 134.859 19.1254 134.957 19.3815C135.056 19.6377 135.13 19.8942 135.182 20.1512C135.234 20.4784 135.241 20.8416 135.201 21.2408C135.16 21.6166 135.085 21.993 134.974 22.37C134.863 22.7235 134.717 23.0542 134.535 23.3622C134.352 23.6466 134.133 23.8614 133.878 24.0065C133.557 24.4341 133.164 24.7691 132.7 25.0116C132.235 25.2541 131.807 25.5429 131.414 25.8779C131.159 26.0465 130.868 26.1688 130.541 26.2448C130.238 26.3204 129.923 26.3962 129.596 26.4723C129.341 26.6174 129.039 26.775 128.69 26.9452C128.341 27.0919 127.98 27.2389 127.608 27.386C127.235 27.5097 126.861 27.61 126.488 27.6868C126.114 27.7403 125.786 27.7577 125.504 27.7392C124.806 28.0092 124.117 28.1853 123.439 28.2675C122.784 28.3727 122.01 28.3393 121.116 28.1674C120.275 28.2993 119.489 28.2778 118.759 28.103C118.053 27.9278 117.415 27.646 116.846 27.2574C116.3 26.845 115.811 26.3613 115.379 25.8062C114.97 25.2273 114.632 24.6238 114.363 23.9956C114.152 22.6631 114.178 21.4554 114.44 20.3726C114.702 19.2663 115.083 18.2516 115.583 17.3287C116.105 16.382 116.7 15.516 117.366 14.7308C118.031 13.9222 118.674 13.1374 119.294 12.3765C119.435 12.4209 119.541 12.419 119.61 12.371C119.703 12.299 119.783 12.2156 119.852 12.1206C119.92 12.0022 119.988 11.8955 120.057 11.8006C120.149 11.7052 120.254 11.6448 120.37 11.6193C120.528 11.2649 120.758 11.0031 121.06 10.8337C121.385 10.6405 121.638 10.3782 121.82 10.0469C122.03 9.99633 122.204 9.92296 122.343 9.82677C122.482 9.73058 122.609 9.62288 122.725 9.50366C122.863 9.38404 123.002 9.27613 123.141 9.17994C123.279 9.06032 123.442 8.97544 123.629 8.9253L123.622 8.53864C124.04 8.3438 124.341 8.12758 124.525 7.88997C124.731 7.62851 124.972 7.31958 125.247 6.96316C125.457 6.93604 125.621 6.92146 125.738 6.91942C125.879 6.91696 126.078 6.89005 126.335 6.83869C126.517 6.50734 126.676 6.25842 126.814 6.09193C126.975 5.92503 127.206 5.74518 127.508 5.55239C127.791 5.68809 128.098 5.77651 128.427 5.81765C128.779 5.85838 129.086 6.00538 129.349 6.25866C129.376 6.49259 129.45 6.67883 129.569 6.81739C129.689 6.93251 129.819 7.04743 129.962 7.16215C130.104 7.25343 130.235 7.35663 130.354 7.47176C130.497 7.58647 130.594 7.74887 130.644 7.95896C130.738 7.98076 130.797 7.96802 130.819 7.92074C130.865 7.87306 130.935 7.86011 131.029 7.88191C131.106 8.20876 131.191 8.42995 131.287 8.54548C131.383 8.63758 131.48 8.83513 131.579 9.13814C131.466 9.37452 131.376 9.62222 131.311 9.88122C131.268 10.1164 131.13 10.2946 130.898 10.4158C130.877 10.5803 130.926 10.6732 131.043 10.6946C131.161 10.6926 131.232 10.7499 131.257 10.8667C131.285 11.0772 131.252 11.2301 131.16 11.3255C131.738 12.2296 132.259 13.1933 132.722 14.2166C133.185 15.2165 133.706 16.1685 134.284 17.0726ZM129.949 20.4886C130.038 20.2292 130.151 20.0163 130.289 19.8498C130.45 19.6829 130.54 19.4352 130.557 19.1067C130.437 18.9213 130.364 18.7819 130.339 18.6886C130.314 18.5718 130.299 18.3963 130.295 18.1619C129.767 17.4445 129.308 16.6789 128.919 15.8653C128.529 15.0282 128.093 14.2505 127.612 13.5323C127.567 13.6268 127.486 13.722 127.371 13.8178C127.255 13.9135 127.126 13.8924 126.983 13.7542C126.939 13.9425 126.86 14.0845 126.744 14.1803C126.628 14.2527 126.5 14.2901 126.359 14.2925C126.218 14.2715 126.065 14.239 125.901 14.195C125.759 14.1272 125.628 14.0474 125.51 13.9557C124.839 14.5066 124.169 15.0457 123.499 15.5731C122.828 16.1005 122.229 16.7087 121.702 17.3977C121.609 17.4462 121.551 17.4707 121.527 17.4711C121.504 17.4481 121.433 17.461 121.317 17.5099C121.137 17.9584 120.91 18.3726 120.636 18.7525C120.384 19.1085 120.133 19.4762 119.881 19.8556C119.63 20.2351 119.414 20.6373 119.234 21.0624C119.054 21.4875 118.957 21.9815 118.944 22.5443C119.348 22.8654 119.82 23.0564 120.36 23.1173C120.9 23.1782 121.451 23.1803 122.013 23.1236C122.598 23.0665 123.159 22.9864 123.696 22.8833C124.257 22.7563 124.771 22.6887 125.24 22.6805C126.22 22.429 127.058 22.1096 127.755 21.7224C128.451 21.3118 129.182 20.9005 129.949 20.4886ZM143.707 21.0572C143.497 21.1078 143.347 21.2393 143.256 21.4518C143.166 21.6409 143.076 21.8418 142.986 22.0543C142.919 22.2664 142.841 22.4671 142.75 22.6562C142.683 22.8214 142.567 22.9055 142.403 22.9084C142.383 23.0962 142.315 23.2615 142.201 23.4042C142.109 23.5464 142.018 23.7004 141.927 23.866C141.836 24.0083 141.769 24.1735 141.725 24.3618C141.681 24.5267 141.708 24.7255 141.806 24.9582C141.621 25.102 141.507 25.3033 141.465 25.5619C141.422 25.8205 141.368 26.0675 141.302 26.3031C141.259 26.5383 141.169 26.7391 141.031 26.9056C140.893 27.0721 140.637 27.1469 140.261 27.13C140.193 27.2249 140.182 27.2837 140.229 27.3063C140.277 27.329 140.313 27.4104 140.339 27.5506C140.08 27.5082 139.881 27.5234 139.742 27.5961C139.627 27.6919 139.475 27.7532 139.288 27.7799C138.84 27.647 138.461 27.4075 138.15 27.0613C137.863 26.7147 137.599 26.3326 137.357 25.9149C137.138 25.4733 136.931 25.0315 136.736 24.5896C136.564 24.1472 136.393 23.7634 136.224 23.4382C136.289 23.1792 136.297 22.9329 136.246 22.6994C136.195 22.4424 136.109 22.2329 135.989 22.071C137.095 19.6138 138.303 16.9907 139.614 14.2018C140.925 11.4129 142.166 8.66033 143.337 5.94416C143.88 6.14565 144.412 6.38251 144.932 6.65472C145.476 6.90308 145.961 7.19934 146.389 7.54348C146.841 7.88722 147.223 8.29077 147.536 8.75413C147.848 9.19406 148.056 9.69441 148.159 10.2552C148.115 10.3966 148.057 10.4562 147.987 10.434C147.939 10.388 147.892 10.4005 147.847 10.4716C147.943 10.5871 147.991 10.6683 147.992 10.7152C148.016 10.7617 148.017 10.8085 147.994 10.8558C147.995 10.9027 147.996 10.973 147.998 11.0667C147.999 11.137 148.036 11.2419 148.109 11.3812C148.015 11.3594 147.945 11.3724 147.899 11.4201C147.876 11.4674 147.806 11.4686 147.688 11.4238C147.786 11.6799 147.813 11.8904 147.769 12.0552C147.748 12.2197 147.704 12.3728 147.636 12.5147C147.568 12.6331 147.512 12.7747 147.468 12.9395C147.424 13.081 147.438 13.2682 147.513 13.5013C147.443 13.5026 147.384 13.527 147.338 13.5747C147.315 13.5986 147.293 13.6341 147.27 13.6814C147.247 13.7052 147.212 13.741 147.166 13.7887C147.143 13.8125 147.096 13.8133 147.026 13.7911C147.105 14.3055 147.137 14.8206 147.123 15.3366C147.109 15.8525 147.094 16.3802 147.08 16.9196C147.089 17.4351 147.111 17.9856 147.144 18.571C147.178 19.1331 147.27 19.7175 147.421 20.3243C148.256 19.8175 148.913 19.1731 149.391 18.3912C149.894 17.6089 150.288 16.7346 150.576 15.7685C150.888 14.802 151.116 13.7666 151.261 12.6624C151.405 11.5581 151.561 10.4302 151.729 9.27868C151.936 9.06409 152.096 8.80346 152.208 8.49677C152.319 8.19009 152.419 7.87189 152.507 7.54218C152.595 7.18903 152.683 6.8476 152.771 6.51789C152.858 6.16475 152.97 5.84634 153.106 5.56268C153.458 5.60341 153.753 5.71547 153.991 5.89885C154.251 6.05839 154.489 6.24177 154.703 6.44899C154.918 6.63278 155.143 6.81637 155.381 6.99975C155.618 7.1597 155.913 7.26004 156.265 7.30077C156.554 7.69424 156.818 8.0764 157.059 8.44725C157.3 8.8181 157.459 9.21382 157.537 9.63441C157.423 9.82392 157.333 10.0365 157.267 10.272C157.224 10.5072 157.169 10.7425 157.103 10.9781C157.037 11.2137 156.947 11.4379 156.834 11.6509C156.72 11.8404 156.559 12.0073 156.35 12.1516C156.29 12.7621 156.206 13.3262 156.098 13.8437C156.013 14.3375 155.916 14.8314 155.808 15.3256C155.723 15.8194 155.65 16.3363 155.589 16.8765C155.527 17.3933 155.514 17.9679 155.548 18.6002C155.37 19.1424 155.181 19.72 154.981 20.333C154.781 20.9459 154.626 21.4995 154.518 21.9937C154.148 22.3049 153.861 22.6732 153.658 23.0987C153.454 23.5242 153.239 23.9499 153.012 24.3758C152.92 24.4711 152.862 24.4956 152.838 24.4491C152.813 24.4027 152.731 24.369 152.59 24.348C152.615 24.4413 152.616 24.5116 152.593 24.5589C152.571 24.6062 152.536 24.6536 152.49 24.7013C152.467 24.7252 152.445 24.7725 152.423 24.8432C152.424 24.9135 152.449 25.0068 152.498 25.1231C152.172 25.2695 151.883 25.4738 151.629 25.736C151.376 25.9983 151.099 26.2376 150.798 26.4538C150.521 26.6696 150.171 26.8163 149.751 26.894C149.354 26.9713 148.825 26.8985 148.165 26.6756C147.192 25.9893 146.322 25.1958 145.556 24.2949C144.814 23.3937 144.197 22.3145 143.707 21.0572Z" fill="#3E28DE"/>
</svg>
